<svg xmlns="http://www.w3.org/2000/svg" width="1400" height="788" viewBox="0 0 1400 788" role="img" aria-labelledby="title desc">
  <title id="title">Transition Agents: Juan Carlos Guzmán</title>
  <desc id="desc">Abstract COIREA insight cover representing transition agents through living-system lines, nodes, and natural rhythms.</desc>
  <defs>
    <linearGradient id="bg" x1="0" y1="0" x2="1" y2="1">
      <stop offset="0" stop-color="#193b2b"/>
      <stop offset=".58" stop-color="#54724c"/>
      <stop offset="1" stop-color="#193b2b"/>
    </linearGradient>
    <radialGradient id="glow" cx=".22" cy=".18" r=".72">
      <stop offset="0" stop-color="#c29a58" stop-opacity=".5"/>
      <stop offset=".42" stop-color="#c29a58" stop-opacity=".12"/>
      <stop offset="1" stop-color="#193b2b" stop-opacity="0"/>
    </radialGradient>
    <filter id="soft"><feGaussianBlur stdDeviation="28"/></filter>
  </defs>
  <rect width="1400" height="788" fill="url(#bg)"/>
  <rect width="1400" height="788" fill="url(#glow)"/>
  <circle cx="203" cy="133" r="210" fill="#c29a58" opacity=".18" filter="url(#soft)"/>
  <circle cx="977" cy="577" r="260" fill="#f3eadb" opacity=".08" filter="url(#soft)"/>
  <path d="M-40 118 C 170 92, 270 144, 480 114 S 770 144, 980 100 S 1210 144, 1460 110" fill="none" stroke="#f3eadb" stroke-width="1" opacity="0.16"/><path d="M-40 200 C 170 165, 270 235, 480 196 S 770 235, 980 182 S 1210 235, 1460 192" fill="none" stroke="#f3eadb" stroke-width="1" opacity="0.178"/><path d="M-40 282 C 170 238, 270 326, 480 278 S 770 326, 980 264 S 1210 326, 1460 274" fill="none" stroke="#f3eadb" stroke-width="1" opacity="0.196"/><path d="M-40 364 C 170 338, 270 390, 480 360 S 770 390, 980 346 S 1210 390, 1460 356" fill="none" stroke="#f3eadb" stroke-width="2" opacity="0.214"/><path d="M-40 446 C 170 411, 270 481, 480 442 S 770 481, 980 428 S 1210 481, 1460 438" fill="none" stroke="#f3eadb" stroke-width="1" opacity="0.23199999999999998"/><path d="M-40 528 C 170 484, 270 572, 480 524 S 770 572, 980 510 S 1210 572, 1460 520" fill="none" stroke="#f3eadb" stroke-width="1" opacity="0.25"/><path d="M-40 610 C 170 584, 270 636, 480 606 S 770 636, 980 592 S 1210 636, 1460 602" fill="none" stroke="#f3eadb" stroke-width="1" opacity="0.268"/><path d="M596 372 C 604.5 302, 604.5 502, 613 432" fill="none" stroke="#f3eadb" stroke-width="1.4" opacity=".24"/><path d="M339 205 C 570.5 135, 570.5 591, 802 521" fill="none" stroke="#f3eadb" stroke-width="1.4" opacity=".24"/><path d="M1022 478 C 1006.5 408, 1006.5 240, 991 170" fill="none" stroke="#f3eadb" stroke-width="1.4" opacity=".24"/><path d="M765 311 C 502.5 241, 502.5 329, 240 259" fill="none" stroke="#f3eadb" stroke-width="1.4" opacity=".24"/><path d="M508 584 C 468.5 514, 468.5 418, 429 348" fill="none" stroke="#f3eadb" stroke-width="1.4" opacity=".24"/><path d="M251 417 C 434.5 347, 434.5 507, 618 437" fill="none" stroke="#f3eadb" stroke-width="1.4" opacity=".24"/><path d="M934 250 C 870.5 180, 870.5 596, 807 526" fill="none" stroke="#f3eadb" stroke-width="1.4" opacity=".24"/><path d="M677 523 C 836.5 453, 836.5 245, 996 175" fill="none" stroke="#f3eadb" stroke-width="1.4" opacity=".24"/><path d="M420 356 C 332.5 286, 332.5 334, 245 264" fill="none" stroke="#f3eadb" stroke-width="1.4" opacity=".24"/><path d="M1103 189 C 768.5 119, 768.5 423, 434 353" fill="none" stroke="#f3eadb" stroke-width="1.4" opacity=".24"/><circle cx="208" cy="165" r="10" fill="#c29a58" opacity="0.72"/><circle cx="579" cy="172" r="11" fill="#54724c" opacity="0.38"/><circle cx="950" cy="179" r="12" fill="#54724c" opacity="0.38"/><circle cx="271" cy="186" r="13" fill="#54724c" opacity="0.38"/><circle cx="642" cy="193" r="5" fill="#c29a58" opacity="0.72"/><circle cx="1013" cy="200" r="6" fill="#54724c" opacity="0.38"/><circle cx="334" cy="207" r="7" fill="#54724c" opacity="0.38"/><circle cx="705" cy="214" r="8" fill="#54724c" opacity="0.38"/><circle cx="1076" cy="221" r="9" fill="#c29a58" opacity="0.72"/><circle cx="397" cy="228" r="10" fill="#54724c" opacity="0.38"/><circle cx="768" cy="235" r="11" fill="#54724c" opacity="0.38"/><circle cx="1139" cy="242" r="12" fill="#54724c" opacity="0.38"/><circle cx="460" cy="249" r="13" fill="#c29a58" opacity="0.72"/><g transform="translate(920 180)" opacity=".9"><circle cx="120" cy="160" r="116" fill="none" stroke="#c29a58" stroke-width="2" opacity=".52"/><circle cx="120" cy="160" r="62" fill="#193b2b" opacity=".74"/><path d="M28 160H212M120 68V252M70 110L170 210M170 110L70 210" stroke="#f3eadb" stroke-width="2" opacity=".42"/></g>
  <g opacity=".92">
    <text x="92" y="116" font-size="18" font-family="Arial, sans-serif" font-weight="800" letter-spacing="5" fill="#c29a58">COIREA INSIGHT</text>
    <text x="92" y="616" font-size="54" font-family="Georgia, 'Times New Roman', serif" font-weight="700" fill="#f3eadb" opacity=".94">Transition agents</text>
  </g>
  <path d="M92 664H420" stroke="#c29a58" stroke-width="2" opacity=".72"/>
  <text x="92" y="714" font-size="18" font-family="Arial, sans-serif" fill="#f3eadb" opacity=".7">COIREA Voices</text>
</svg>
